<?xml version="1.0" encoding="utf-8"?>
<!-- Generator: Adobe Illustrator 30.1.0, SVG Export Plug-In . SVG Version: 9.03 Build 0)  -->
<svg version="1.1" id="Layer_1" xmlns="http://www.w3.org/2000/svg" xmlns:xlink="http://www.w3.org/1999/xlink" x="0px" y="0px"
	 viewBox="0 0 150 120" enable-background="new 0 0 150 120" xml:space="preserve">
<g>
	<path fill="#FFFFFF" d="M77.355,17.816c0.34,1.859,0.67,3.676,1.011,5.491c0.411,2.188,0.831,4.375,1.247,6.562
		c0.345,1.814,0.686,3.629,1.034,5.443c0.242,1.263,0.499,2.524,0.739,3.788c0.318,1.669,0.622,3.34,0.94,5.009
		c0.204,1.069,0.429,2.134,0.632,3.204c0.287,1.507,0.563,3.015,0.842,4.523c0.222,1.2,0.45,2.399,0.661,3.601
		c0.256,1.462,0.497,2.927,0.746,4.39c0.171,1.008,0.348,2.015,0.516,3.024c0.195,1.171,0.381,2.344,0.576,3.515
		c0.168,1.009,0.348,2.015,0.518,3.024c0.189,1.122,0.368,2.246,0.562,3.367c0.202,1.17,0.408,2.34,0.629,3.507
		c0.238,1.264,0.495,2.525,0.743,3.787c0.019,0.097,0.033,0.195,0.048,0.293c0.045,0.291-0.064,0.521-0.298,0.685
		c-0.12,0.084-0.257,0.15-0.395,0.203c-0.492,0.192-0.988,0.372-1.48,0.562c-1.298,0.501-2.521,1.149-3.699,1.886
		c-0.084,0.052-0.164,0.114-0.253,0.155c-0.309,0.142-0.621,0.232-0.941,0.026c-0.014-0.009-0.029-0.016-0.045-0.021
		c-1.145-0.302-2.25-0.763-3.452-0.836c-0.294-0.018-0.585-0.09-0.878-0.138c-0.081-0.013-0.161-0.04-0.243-0.044
		c-0.808-0.039-1.615-0.083-2.423-0.105c-0.227-0.006-0.456,0.06-0.685,0.086c-0.622,0.073-1.245,0.142-1.868,0.212
		c-0.115,0.013-0.235,0.003-0.344,0.033c-0.683,0.19-1.364,0.385-2.043,0.588c-0.3,0.09-0.589,0.217-0.889,0.302
		c-0.403,0.115-0.807,0.122-1.216-0.014c-0.455-0.151-0.907-0.304-1.333-0.527c-0.058-0.031-0.117-0.063-0.179-0.085
		c-0.928-0.324-1.745-0.858-2.576-1.363c-0.578-0.352-1.152-0.711-1.724-1.073c-0.179-0.113-0.377-0.209-0.505-0.423
		c0.064-0.376,0.129-0.765,0.196-1.153c0.189-1.089,0.377-2.177,0.568-3.266c0.145-0.829,0.294-1.656,0.439-2.485
		c0.256-1.462,0.51-2.924,0.767-4.385c0.168-0.958,0.342-1.916,0.51-2.874c0.223-1.267,0.436-2.535,0.669-3.8
		c0.135-0.729,0.306-1.452,0.453-2.178c0.082-0.404,0.151-0.81,0.223-1.216c0.182-1.04,0.364-2.079,0.543-3.119
		c0.123-0.715,0.24-1.431,0.362-2.146c0.264-1.544,0.522-3.089,0.798-4.631c0.215-1.201,0.462-2.396,0.677-3.597
		c0.245-1.364,0.464-2.731,0.706-4.096c0.201-1.137,0.423-2.27,0.627-3.406c0.295-1.639,0.577-3.281,0.875-4.919
		c0.159-0.876,0.351-1.746,0.507-2.623c0.089-0.502,0.135-1.012,0.2-1.519c0.015-0.114,0.019-0.231,0.048-0.342
		c0.296-1.119,0.454-2.262,0.641-3.402c0.152-0.927,0.344-1.848,0.509-2.773c0.165-0.925,0.316-1.853,0.475-2.779
		c0.059-0.341,0.121-0.682,0.184-1.023c0.263-1.427,0.532-2.853,0.788-4.281c0.18-1.006,0.333-2.017,0.517-3.022
		c0.154-0.843,0.334-1.682,0.504-2.522c0.151-0.743,0.311-1.485,0.453-2.23c0.04-0.209,0.031-0.428,0.041-0.642
		c0.009-0.198,0.031-0.393,0.14-0.61c0.07,0.052,0.145,0.083,0.177,0.139c0.039,0.068,0.053,0.156,0.058,0.237
		c0.045,0.611,0.172,1.207,0.304,1.803c0.218,0.982,0.425,1.966,0.633,2.95c0.232,1.097,0.473,2.193,0.69,3.293
		c0.235,1.197,0.447,2.399,0.669,3.598C77.301,17.547,77.326,17.66,77.355,17.816z"/>
	<path fill="#FFFFFF" d="M56.025,83.741c1.567,0.749,3.104,1.476,4.636,2.213c0.669,0.322,1.328,0.664,1.992,0.994
		c0.132,0.066,0.269,0.121,0.436,0.195c-0.112,0.225-0.133,0.486-0.296,0.69c-0.144,0.18-0.292,0.358-0.452,0.524
		c-0.823,0.858-1.65,1.713-2.361,2.67c-0.502,0.677-0.979,1.368-1.334,2.138c-0.41,0.89-0.666,1.827-0.899,2.773
		c-0.32,1.303-0.489,2.628-0.577,3.963c-0.07,1.055-0.095,2.115-0.005,3.169c0.261,3.078,1.276,5.884,3.079,8.401
		c0.414,0.578,0.852,1.135,1.307,1.68c0.209,0.251,0.444,0.49,0.53,0.802c-0.039,0.153-0.137,0.213-0.256,0.231
		c-0.113,0.018-0.232,0.031-0.345,0.016c-0.97-0.129-1.946-0.056-2.919-0.086c-0.279-0.009-0.56-0.034-0.836-0.075
		c-0.573-0.085-1.065-0.331-1.469-0.754c-1.14-1.195-2.283-2.386-3.425-3.579c-0.286-0.298-0.575-0.592-0.857-0.895
		c-1.485-1.595-2.971-3.19-4.452-4.789c-1.088-1.175-2.166-2.36-3.255-3.535c-1.347-1.453-2.702-2.898-4.051-4.35
		c-1.023-1.101-2.037-2.209-3.061-3.309c-0.45-0.483-0.92-0.948-1.371-1.431c-0.968-1.039-1.925-2.088-2.894-3.125
		c-0.89-0.953-1.797-1.891-2.686-2.846c-1.08-1.16-2.147-2.333-3.223-3.496c-0.516-0.558-1.042-1.105-1.56-1.661
		c-0.551-0.592-1.097-1.189-1.646-1.783c-0.684-0.739-1.371-1.476-2.052-2.218c-0.525-0.572-1.039-1.153-1.566-1.723
		c-0.684-0.739-1.378-1.469-2.064-2.206c-0.731-0.785-1.454-1.579-2.187-2.362c-1.524-1.627-3.053-3.249-4.579-4.873
		c-0.769-0.818-1.537-1.638-2.305-2.456c-0.034-0.036-0.084-0.067-0.099-0.11c-0.096-0.269-0.321-0.408-0.54-0.555
		c-0.024-0.016-0.033-0.053-0.063-0.103c0.044-0.01,0.086-0.035,0.117-0.025c0.82,0.25,1.64,0.503,2.459,0.757
		c0.047,0.015,0.102,0.024,0.137,0.055c0.342,0.304,0.782,0.417,1.181,0.606c1.088,0.516,2.185,1.014,3.283,1.51
		c1.309,0.59,2.616,1.184,3.935,1.752c1.365,0.588,2.706,1.225,4.047,1.863c1.371,0.652,2.754,1.28,4.13,1.92
		c1.182,0.549,2.363,1.101,3.545,1.65c0.898,0.417,1.799,0.827,2.694,1.249c1.418,0.669,2.829,1.351,4.249,2.016
		c0.717,0.336,1.452,0.635,2.171,0.966c0.839,0.387,1.668,0.796,2.506,1.187c0.912,0.426,1.834,0.83,2.742,1.265
		c1.995,0.955,3.982,1.925,5.974,2.887c0.669,0.323,1.344,0.633,2.012,0.958C54.337,82.901,55.164,83.314,56.025,83.741z"/>
	<path fill="#FFFFFF" d="M113.057,92.744c-0.95,1.013-1.881,1.996-2.806,2.985c-0.79,0.844-1.574,1.692-2.36,2.54
		c-1.447,1.563-2.894,3.126-4.34,4.69c-1.255,1.358-2.506,2.72-3.766,4.073c-0.382,0.41-0.797,0.789-1.183,1.195
		c-0.25,0.263-0.475,0.549-0.711,0.825c-0.097,0.113-0.19,0.229-0.292,0.337c-1.142,1.215-2.283,2.431-3.429,3.642
		c-0.272,0.288-0.563,0.558-0.839,0.842c-0.352,0.361-0.782,0.557-1.28,0.558c-0.611,0.002-1.216,0.084-1.824,0.106
		c-0.592,0.022-1.184,0.046-1.776,0.049c-0.21,0.001-0.421-0.055-0.666-0.09c0.035-0.139,0.043-0.254,0.093-0.347
		c0.156-0.289,0.322-0.57,0.555-0.812c0.423-0.44,0.846-0.883,1.229-1.357c0.529-0.655,0.988-1.362,1.393-2.102
		c0.111-0.202,0.233-0.399,0.35-0.597c0.042-0.071,0.094-0.137,0.128-0.211c0.462-1.022,0.962-2.027,1.216-3.131
		c0.092-0.4,0.24-0.788,0.34-1.186c0.055-0.219,0.153-0.44,0.081-0.678c0.093-0.634,0.067-1.279,0.25-1.908
		c0.162-0.557,0.133-1.154,0.037-1.722c-0.12-0.713-0.221-1.433-0.389-2.134c-0.411-1.717-0.854-3.427-1.738-4.984
		c-0.326-0.573-0.596-1.177-0.917-1.754c-0.345-0.62-0.732-1.214-1.159-1.783c-0.495-0.659-0.957-1.344-1.422-2.025
		c-0.127-0.186-0.258-0.384-0.262-0.649c0.211-0.209,0.473-0.342,0.746-0.458c0.669-0.283,1.338-0.563,2.007-0.845
		c1.78-0.75,3.516-1.593,5.242-2.459c0.914-0.459,1.85-0.874,2.772-1.317c1.562-0.75,3.118-1.513,4.682-2.259
		c1.161-0.554,2.348-1.06,3.494-1.644c2.398-1.222,4.886-2.25,7.306-3.425c1.544-0.749,3.095-1.483,4.644-2.221
		c0.313-0.149,0.634-0.28,0.945-0.431c1.008-0.492,2.009-1.001,3.022-1.482c2.116-1.006,4.239-1.999,6.359-2.996
		c0.925-0.435,1.848-0.876,2.778-1.302c1.08-0.495,2.167-0.974,3.249-1.465c1.292-0.586,2.581-1.18,3.875-1.763
		c0.359-0.162,0.727-0.293,1.057-0.522c0.168-0.117,0.4-0.145,0.606-0.205c0.285-0.084,0.574-0.155,0.818-0.34
		c0.139-0.105,0.293-0.112,0.502-0.046c-0.251,0.288-0.468,0.555-0.704,0.803c-1.295,1.366-2.604,2.719-3.889,4.093
		c-0.935,1.001-1.839,2.031-2.764,3.042c-0.166,0.181-0.37,0.327-0.542,0.504c-0.299,0.308-0.589,0.624-0.878,0.941
		c-0.788,0.867-1.572,1.739-2.36,2.605c-0.744,0.818-1.49,1.635-2.241,2.447c-0.65,0.703-1.314,1.393-1.963,2.097
		c-0.827,0.898-1.64,1.81-2.47,2.705c-0.965,1.041-1.942,2.071-2.914,3.106c-1.526,1.624-3.057,3.244-4.578,4.874
		c-0.991,1.062-1.967,2.138-2.951,3.208C113.312,92.482,113.195,92.598,113.057,92.744z"/>
	<path fill="#FFFFFF" d="M118.786,25.04c-0.017,0.128-0.018,0.261-0.055,0.383c-0.902,3.018-1.808,6.034-2.713,9.051
		c-0.275,0.916-0.547,1.833-0.828,2.747c-0.116,0.378-0.264,0.747-0.378,1.126c-0.279,0.932-0.546,1.868-0.82,2.801
		c-0.446,1.519-0.895,3.037-1.341,4.556c-0.525,1.788-1.045,3.578-1.572,5.365c-0.766,2.594-1.535,5.187-2.309,7.778
		c-0.326,1.09-0.685,2.171-0.999,3.264c-0.533,1.854-1.036,3.717-1.565,5.572c-0.271,0.951-0.57,1.895-0.863,2.84
		c-0.195,0.63-0.416,1.252-0.603,1.884c-0.198,0.67-0.623,1.11-1.271,1.346c-0.902,0.33-1.727,0.823-2.587,1.239
		c-1.217,0.589-2.416,1.217-3.624,1.827c-0.826,0.417-1.665,0.802-2.546,1.087c-0.141,0.046-0.283,0.096-0.428,0.122
		c-0.389,0.072-0.594-0.033-0.732-0.41c-0.077-0.213-0.115-0.447-0.135-0.674c-0.05-0.558-0.062-1.12-0.121-1.677
		c-0.082-0.771-0.189-1.538-0.292-2.307c-0.117-0.866-0.238-1.732-0.365-2.597c-0.101-0.685-0.202-1.37-0.325-2.052
		c-0.22-1.217-0.449-2.432-0.692-3.645c-0.123-0.614-0.305-1.216-0.419-1.831c-0.135-0.729-0.237-1.465-0.331-2.201
		c-0.09-0.701,0.072-1.349,0.515-1.908c0.512-0.647,1.04-1.281,1.559-1.923c1.195-1.475,2.392-2.948,3.581-4.428
		c0.558-0.695,1.092-1.409,1.65-2.104c0.63-0.785,1.276-1.556,1.911-2.336c0.292-0.358,0.577-0.722,0.862-1.086
		c1.293-1.65,2.584-3.301,3.934-4.904c0.553-0.656,1.062-1.348,1.604-2.013c0.553-0.678,1.121-1.343,1.683-2.013
		c0.742-0.885,1.486-1.769,2.227-2.655c0.657-0.785,1.319-1.566,1.964-2.36c1.144-1.409,2.274-2.831,3.417-4.241
		c0.821-1.013,1.655-2.016,2.482-3.024c0.157-0.191,0.309-0.386,0.495-0.59C118.788,25.042,118.786,25.04,118.786,25.04z"/>
	<path fill="#FFFFFF" d="M82.389,90.279c0.573,0.449,1.138,0.854,1.656,1.313c0.368,0.326,0.694,0.707,1.001,1.093
		c1.062,1.332,1.79,2.844,2.331,4.449c0.386,1.145,0.604,2.323,0.714,3.53c0.151,1.658-0.094,3.261-0.567,4.834
		c-0.423,1.406-1.152,2.659-2.047,3.818c-0.65,0.842-1.422,1.557-2.241,2.23c-1.138,0.935-2.434,1.571-3.802,2.083
		c-1.121,0.42-2.277,0.642-3.471,0.73c-1.837,0.136-3.612-0.1-5.356-0.685c-1.413-0.474-2.664-1.234-3.841-2.117
		c-0.605-0.454-1.108-1.036-1.587-1.627c-0.805-0.993-1.495-2.057-1.965-3.25c-0.461-1.17-0.792-2.375-0.932-3.631
		c-0.084-0.755-0.198-1.507-0.157-2.268c0.114-2.088,0.624-4.065,1.642-5.906c0.621-1.122,1.433-2.092,2.283-3.04
		c0.412-0.459,0.884-0.835,1.384-1.189c0.729-0.516,1.47-1.006,2.286-1.375c1.224-0.554,2.489-0.957,3.829-1.126
		c0.874-0.11,1.742-0.071,2.617-0.017c1.435,0.088,2.787,0.503,4.128,0.968c0.371,0.129,0.72,0.329,1.064,0.524
		C81.701,89.817,82.027,90.045,82.389,90.279z"/>
	<path fill="#FFFFFF" d="M31.396,25.014c0.186,0.204,0.338,0.399,0.495,0.59c0.827,1.008,1.661,2.011,2.482,3.024
		c1.143,1.41,2.273,2.832,3.417,4.241c0.645,0.794,1.307,1.575,1.964,2.36c0.741,0.886,1.485,1.77,2.227,2.655
		c0.562,0.67,1.13,1.335,1.683,2.013c0.542,0.665,1.052,1.357,1.604,2.013c1.351,1.604,2.642,3.254,3.934,4.904
		c0.285,0.364,0.571,0.727,0.862,1.086c0.635,0.78,1.281,1.552,1.911,2.336c0.558,0.695,1.092,1.409,1.65,2.104
		c1.189,1.48,2.386,2.953,3.581,4.428c0.519,0.641,1.047,1.276,1.559,1.923c0.443,0.559,0.604,1.207,0.515,1.908
		c-0.094,0.736-0.196,1.472-0.331,2.201c-0.114,0.615-0.296,1.217-0.419,1.831c-0.242,1.213-0.471,2.428-0.692,3.645
		c-0.123,0.681-0.224,1.367-0.325,2.052c-0.127,0.865-0.248,1.731-0.365,2.597c-0.104,0.768-0.21,1.536-0.292,2.307
		c-0.059,0.557-0.071,1.119-0.121,1.677c-0.02,0.227-0.057,0.461-0.135,0.674c-0.137,0.378-0.342,0.482-0.732,0.41
		c-0.145-0.027-0.287-0.077-0.428-0.122c-0.882-0.285-1.721-0.671-2.546-1.087c-1.208-0.609-2.407-1.237-3.624-1.827
		c-0.861-0.417-1.685-0.91-2.587-1.239c-0.648-0.237-1.073-0.676-1.271-1.346c-0.187-0.632-0.407-1.254-0.603-1.884
		c-0.293-0.945-0.591-1.888-0.863-2.84c-0.53-1.855-1.032-3.718-1.565-5.572c-0.314-1.093-0.674-2.174-0.999-3.264
		c-0.774-2.591-1.542-5.185-2.309-7.778c-0.528-1.787-1.048-3.577-1.572-5.365c-0.446-1.519-0.895-3.037-1.341-4.556
		c-0.274-0.933-0.54-1.869-0.82-2.801c-0.114-0.379-0.261-0.748-0.378-1.126c-0.281-0.914-0.553-1.831-0.828-2.747
		c-0.905-3.017-1.811-6.033-2.713-9.051c-0.037-0.122-0.037-0.255-0.055-0.383C31.366,25.001,31.364,25.003,31.396,25.014z"/>
</g>
</svg>
