<?xml version="1.0" encoding="UTF-8"?>
<svg id="Layer_1" xmlns="http://www.w3.org/2000/svg" version="1.1" viewBox="0 0 20 20">
  <!-- Generator: Adobe Illustrator 30.1.0, SVG Export Plug-In . SVG Version: 2.1.1 Build 136)  -->
  <path d="M10.35,3.98c.05.27.1.54.15.81.06.32.12.65.18.97.05.27.1.54.15.81.04.19.07.37.11.56.05.25.09.49.14.74.03.16.06.32.09.47.04.22.08.45.12.67.03.18.07.35.1.53.04.22.07.43.11.65.03.15.05.3.08.45.03.17.06.35.09.52.02.15.05.3.08.45.03.17.05.33.08.5.03.17.06.35.09.52.04.19.07.37.11.56,0,.01,0,.03,0,.04,0,.04,0,.08-.04.1-.02.01-.04.02-.06.03-.07.03-.15.06-.22.08-.19.07-.37.17-.55.28-.01,0-.02.02-.04.02-.05.02-.09.03-.14,0,0,0,0,0,0,0-.17-.04-.33-.11-.51-.12-.04,0-.09-.01-.13-.02-.01,0-.02,0-.04,0-.12,0-.24-.01-.36-.02-.03,0-.07,0-.1.01-.09.01-.18.02-.28.03-.02,0-.03,0-.05,0-.1.03-.2.06-.3.09-.04.01-.09.03-.13.04-.06.02-.12.02-.18,0-.07-.02-.13-.05-.2-.08,0,0-.02,0-.03-.01-.14-.05-.26-.13-.38-.2-.09-.05-.17-.11-.25-.16-.03-.02-.06-.03-.07-.06,0-.06.02-.11.03-.17.03-.16.06-.32.08-.48.02-.12.04-.25.06-.37.04-.22.08-.43.11-.65.02-.14.05-.28.08-.43.03-.19.06-.38.1-.56.02-.11.05-.21.07-.32.01-.06.02-.12.03-.18.03-.15.05-.31.08-.46.02-.11.04-.21.05-.32.04-.23.08-.46.12-.69.03-.18.07-.35.1-.53.04-.2.07-.4.1-.61.03-.17.06-.34.09-.5.04-.24.09-.49.13-.73.02-.13.05-.26.07-.39.01-.07.02-.15.03-.22,0-.02,0-.03,0-.05.04-.17.07-.33.09-.5.02-.14.05-.27.08-.41.02-.14.05-.27.07-.41,0-.05.02-.1.03-.15.04-.21.08-.42.12-.63.03-.15.05-.3.08-.45.02-.12.05-.25.07-.37.02-.11.05-.22.07-.33,0-.03,0-.06,0-.09,0-.03,0-.06.02-.09.01,0,.02.01.03.02,0,.01,0,.02,0,.04,0,.09.03.18.05.27.03.15.06.29.09.44.03.16.07.32.1.49.03.18.07.35.1.53,0,.02,0,.03.01.06Z" fill="#e0b825"/>
  <path d="M7.19,13.73c.23.11.46.22.69.33.1.05.2.1.29.15.02,0,.04.02.06.03-.02.03-.02.07-.04.1-.02.03-.04.05-.07.08-.12.13-.24.25-.35.4-.07.1-.14.2-.2.32-.06.13-.1.27-.13.41-.05.19-.07.39-.09.59-.01.16-.01.31,0,.47.04.46.19.87.46,1.24.06.09.13.17.19.25.03.04.07.07.08.12,0,.02-.02.03-.04.03-.02,0-.03,0-.05,0-.14-.02-.29,0-.43-.01-.04,0-.08,0-.12-.01-.08-.01-.16-.05-.22-.11-.17-.18-.34-.35-.51-.53-.04-.04-.09-.09-.13-.13-.22-.24-.44-.47-.66-.71-.16-.17-.32-.35-.48-.52-.2-.21-.4-.43-.6-.64-.15-.16-.3-.33-.45-.49-.07-.07-.14-.14-.2-.21-.14-.15-.28-.31-.43-.46-.13-.14-.27-.28-.4-.42-.16-.17-.32-.35-.48-.52-.08-.08-.15-.16-.23-.25-.08-.09-.16-.18-.24-.26-.1-.11-.2-.22-.3-.33-.08-.08-.15-.17-.23-.25-.1-.11-.2-.22-.31-.33-.11-.12-.22-.23-.32-.35-.23-.24-.45-.48-.68-.72-.11-.12-.23-.24-.34-.36,0,0-.01,0-.01-.02-.01-.04-.05-.06-.08-.08,0,0,0,0,0-.02,0,0,.01,0,.02,0,.12.04.24.07.36.11,0,0,.02,0,.02,0,.05.04.12.06.17.09.16.08.32.15.49.22.19.09.39.18.58.26.2.09.4.18.6.28.2.1.41.19.61.28.17.08.35.16.52.24.13.06.27.12.4.18.21.1.42.2.63.3.11.05.21.09.32.14.12.06.25.12.37.18.13.06.27.12.41.19.3.14.59.28.88.43.1.05.2.09.3.14.12.06.25.12.37.18Z" fill="#dfb826"/>
  <path d="M15.63,15.06c-.14.15-.28.3-.42.44-.12.12-.23.25-.35.38-.21.23-.43.46-.64.69-.19.2-.37.4-.56.6-.06.06-.12.12-.18.18-.04.04-.07.08-.11.12-.01.02-.03.03-.04.05-.17.18-.34.36-.51.54-.04.04-.08.08-.12.12-.05.05-.12.08-.19.08-.09,0-.18.01-.27.02-.09,0-.18,0-.26,0-.03,0-.06,0-.1-.01,0-.02,0-.04.01-.05.02-.04.05-.08.08-.12.06-.07.13-.13.18-.2.08-.1.15-.2.21-.31.02-.03.03-.06.05-.09,0-.01.01-.02.02-.03.07-.15.14-.3.18-.46.01-.06.04-.12.05-.18,0-.03.02-.07.01-.1.01-.09,0-.19.04-.28.02-.08.02-.17,0-.25-.02-.11-.03-.21-.06-.32-.06-.25-.13-.51-.26-.74-.05-.08-.09-.17-.14-.26-.05-.09-.11-.18-.17-.26-.07-.1-.14-.2-.21-.3-.02-.03-.04-.06-.04-.1.03-.03.07-.05.11-.07.1-.04.2-.08.3-.12.26-.11.52-.24.78-.36.14-.07.27-.13.41-.19.23-.11.46-.22.69-.33.17-.08.35-.16.52-.24.35-.18.72-.33,1.08-.51.23-.11.46-.22.69-.33.05-.02.09-.04.14-.06.15-.07.3-.15.45-.22.31-.15.63-.3.94-.44.14-.06.27-.13.41-.19.16-.07.32-.14.48-.22.19-.09.38-.17.57-.26.05-.02.11-.04.16-.08.02-.02.06-.02.09-.03.04-.01.08-.02.12-.05.02-.02.04-.02.07,0-.04.04-.07.08-.1.12-.19.2-.39.4-.58.61-.14.15-.27.3-.41.45-.02.03-.05.05-.08.07-.04.05-.09.09-.13.14-.12.13-.23.26-.35.39-.11.12-.22.24-.33.36-.1.1-.19.21-.29.31-.12.13-.24.27-.37.4-.14.15-.29.31-.43.46-.23.24-.45.48-.68.72-.15.16-.29.32-.44.47-.02.02-.03.04-.05.06Z" fill="#dfb826"/>
  <path d="M16.48,5.04s0,.04,0,.06c-.13.45-.27.89-.4,1.34-.04.14-.08.27-.12.41-.02.06-.04.11-.06.17-.04.14-.08.28-.12.41-.07.22-.13.45-.2.67-.08.26-.15.53-.23.79-.11.38-.23.77-.34,1.15-.05.16-.1.32-.15.48-.08.27-.15.55-.23.82-.04.14-.08.28-.13.42-.03.09-.06.19-.09.28-.03.1-.09.16-.19.2-.13.05-.26.12-.38.18-.18.09-.36.18-.54.27-.12.06-.25.12-.38.16-.02,0-.04.01-.06.02-.06.01-.09,0-.11-.06-.01-.03-.02-.07-.02-.1,0-.08,0-.17-.02-.25-.01-.11-.03-.23-.04-.34-.02-.13-.04-.26-.05-.38-.01-.1-.03-.2-.05-.3-.03-.18-.07-.36-.1-.54-.02-.09-.05-.18-.06-.27-.02-.11-.04-.22-.05-.33-.01-.1.01-.2.08-.28.08-.1.15-.19.23-.28.18-.22.35-.44.53-.65.08-.1.16-.21.24-.31.09-.12.19-.23.28-.35.04-.05.09-.11.13-.16.19-.24.38-.49.58-.73.08-.1.16-.2.24-.3.08-.1.17-.2.25-.3.11-.13.22-.26.33-.39.1-.12.2-.23.29-.35.17-.21.34-.42.51-.63.12-.15.24-.3.37-.45.02-.03.05-.06.07-.09,0,0,0,0,0,0Z" fill="#dfb826"/>
  <path d="M11.09,14.69c.08.07.17.13.24.19.05.05.1.1.15.16.16.2.26.42.34.66.06.17.09.34.11.52.02.25-.01.48-.08.72-.06.21-.17.39-.3.56-.1.12-.21.23-.33.33-.17.14-.36.23-.56.31-.17.06-.34.09-.51.11-.27.02-.53-.01-.79-.1-.21-.07-.39-.18-.57-.31-.09-.07-.16-.15-.23-.24-.12-.15-.22-.3-.29-.48-.07-.17-.12-.35-.14-.54-.01-.11-.03-.22-.02-.34.02-.31.09-.6.24-.87.09-.17.21-.31.34-.45.06-.07.13-.12.2-.18.11-.08.22-.15.34-.2.18-.08.37-.14.57-.17.13-.02.26-.01.39,0,.21.01.41.07.61.14.05.02.11.05.16.08.05.03.1.06.15.1Z" fill="#e0b825"/>
  <path d="M3.55,5.04s.05.06.07.09c.12.15.25.3.37.45.17.21.34.42.51.63.1.12.19.23.29.35.11.13.22.26.33.39.08.1.17.2.25.3.08.1.16.2.24.3.2.24.39.48.58.73.04.05.08.11.13.16.09.12.19.23.28.35.08.1.16.21.24.31.18.22.35.44.53.65.08.09.15.19.23.28.07.08.09.18.08.28-.01.11-.03.22-.05.33-.02.09-.04.18-.06.27-.04.18-.07.36-.1.54-.02.1-.03.2-.05.3-.02.13-.04.26-.05.38-.02.11-.03.23-.04.34,0,.08-.01.17-.02.25,0,.03,0,.07-.02.1-.02.06-.05.07-.11.06-.02,0-.04-.01-.06-.02-.13-.04-.25-.1-.38-.16-.18-.09-.36-.18-.54-.27-.13-.06-.25-.13-.38-.18-.1-.04-.16-.1-.19-.2-.03-.09-.06-.19-.09-.28-.04-.14-.09-.28-.13-.42-.08-.27-.15-.55-.23-.82-.05-.16-.1-.32-.15-.48-.11-.38-.23-.77-.34-1.15-.08-.26-.15-.53-.23-.79-.07-.22-.13-.45-.2-.67-.04-.14-.08-.28-.12-.41-.02-.06-.04-.11-.06-.17-.04-.14-.08-.27-.12-.41-.13-.45-.27-.89-.4-1.34,0-.02,0-.04,0-.06,0,0,0,0,0,0Z" fill="#dfb826"/>
</svg>