<?xml version="1.0" encoding="UTF-8"?>
<svg id="Layer_1" xmlns="http://www.w3.org/2000/svg" version="1.1" viewBox="0 0 180 40">
  <!-- Generator: Adobe Illustrator 30.1.0, SVG Export Plug-In . SVG Version: 2.1.1 Build 136)  -->
  <path d="M.35,10.14h3.68l3.53,10.92,3.53-10.92h3.68v25.23h-3.42v-17.23l-3.75,11.14h-.07l-3.75-11.14v17.23H.35V10.14Z" fill="#83856c"/>
  <path d="M20.54,10.14h9.34v3.35h-5.77v7.5h5.16v3.35h-5.16v7.68h5.88v3.35h-9.44V10.14Z" fill="#83856c"/>
  <path d="M34.52,32.64l6.56-19.18h-6.27v-3.32h10.17v2.74l-6.56,19.18h6.56v3.32h-10.45v-2.74Z" fill="#83856c"/>
  <path d="M48.83,23.15v-.79c0-8.72,3.24-12.4,7.21-12.4,1.19,0,1.84.14,2.74.58v3.68c-.9-.54-1.62-.79-2.45-.79-2.2,0-3.89,2.34-3.89,8.9v.87c0,6.81,1.69,8.9,3.93,8.9.76,0,1.59-.25,2.49-.79v3.53c-.9.5-1.84.72-3.06.72-3.93,0-6.96-3.71-6.96-12.4Z" fill="#83856c"/>
  <path d="M67.94,10.07h3.82l5.01,25.31h-3.6l-1.01-5.62h-4.76l-1.01,5.62h-3.46l5.01-25.31ZM71.62,26.54l-1.84-10.13-1.84,10.13h3.68Z" fill="#83856c"/>
  <path d="M81.35,10.14h3.57v21.88h5.16v3.35h-8.72V10.14Z" fill="#83856c"/>
  <path d="M93.35,23.3v-1.08c0-8.33,2.67-12.4,6.49-12.4s6.49,4.07,6.49,12.4v1.08c0,8.33-2.67,12.4-6.49,12.4s-6.49-4.07-6.49-12.4ZM102.73,23.3v-1.08c0-6.74-1.19-9.16-2.88-9.16s-2.88,2.42-2.88,9.16v1.08c0,6.74,1.19,9.16,2.88,9.16s2.88-2.42,2.88-9.16ZM101.17,4.3l3.06,1.51-3.35,2.81h-2.56l2.85-4.33Z" fill="#83856c"/>
  <path d="M111.63,10.14h3.68l3.53,10.92,3.53-10.92h3.68v25.23h-3.42v-17.23l-3.75,11.14h-.07l-3.75-11.14v17.23h-3.42V10.14Z" fill="#83856c"/>
  <path d="M135.64,10.07h3.82l5.01,25.31h-3.6l-1.01-5.62h-4.76l-1.01,5.62h-3.46l5.01-25.31ZM139.31,26.54l-1.84-10.13-1.84,10.13h3.68Z" fill="#83856c"/>
  <path d="M149.05,10.14h3.39l5.52,15.5v-15.5h3.42v25.23h-3.17l-5.73-16.08v16.08h-3.42V10.14Z" fill="#83856c"/>
  <path d="M166.67,23.3v-1.08c0-8.33,2.67-12.4,6.49-12.4s6.49,4.07,6.49,12.4v1.08c0,8.33-2.67,12.4-6.49,12.4s-6.49-4.07-6.49-12.4ZM176.05,23.3v-1.08c0-6.74-1.19-9.16-2.88-9.16s-2.88,2.42-2.88,9.16v1.08c0,6.74,1.19,9.16,2.88,9.16s2.88-2.42,2.88-9.16Z" fill="#83856c"/>
</svg>