<?xml version="1.0" encoding="utf-8"?>
<!-- Generator: Adobe Illustrator 30.1.0, SVG Export Plug-In . SVG Version: 9.03 Build 0)  -->
<svg version="1.1" id="Layer_1" xmlns="http://www.w3.org/2000/svg" xmlns:xlink="http://www.w3.org/1999/xlink" x="0px" y="0px"
	 viewBox="0 0 250 80" enable-background="new 0 0 250 80" xml:space="preserve">
<g>
	<path fill="#FFFFFF" d="M12.44,27.622h4.616l4.435,13.713l4.436-13.713h4.616v31.681h-4.299V37.669l-4.707,13.985h-0.09
		l-4.707-13.985v21.634H12.44V27.622z"/>
	<path fill="#FFFFFF" d="M37.786,27.622h11.722v4.209h-7.241v9.414h6.472v4.209h-6.472v9.64h7.377v4.209H37.786V27.622z"/>
	<path fill="#FFFFFF" d="M55.346,55.863l8.237-24.078h-7.875v-4.164h12.763v3.439l-8.237,24.077h8.237v4.164H55.346V55.863z"/>
	<path fill="#FFFFFF" d="M73.314,43.96v-0.996c0-10.953,4.073-15.569,9.052-15.569c1.493,0,2.308,0.181,3.439,0.724v4.616
		c-1.131-0.679-2.037-0.996-3.078-0.996c-2.761,0-4.888,2.942-4.888,11.179v1.086c0,8.554,2.127,11.178,4.933,11.178
		c0.95,0,1.991-0.316,3.123-0.995v4.436c-1.131,0.633-2.308,0.904-3.847,0.904C77.116,59.528,73.314,54.867,73.314,43.96z"/>
	<path fill="#FFFFFF" d="M97.302,27.531h4.797l6.291,31.771h-4.526l-1.267-7.061h-5.974l-1.267,7.061h-4.345L97.302,27.531z
		 M101.918,48.214L99.61,35.497l-2.308,12.718H101.918z"/>
	<path fill="#FFFFFF" d="M114.139,27.622h4.48v27.472h6.472v4.209h-10.952V27.622z"/>
	<path fill="#FFFFFF" d="M129.211,44.141v-1.358c0-10.455,3.349-15.568,8.146-15.568c4.797,0,8.146,5.114,8.146,15.568v1.358
		c0,10.455-3.349,15.569-8.146,15.569C132.56,59.71,129.211,54.596,129.211,44.141z M140.977,44.141v-1.358
		c0-8.463-1.493-11.496-3.62-11.496c-2.127,0-3.621,3.032-3.621,11.496v1.358c0,8.463,1.493,11.496,3.621,11.496
		C139.484,55.637,140.977,52.604,140.977,44.141z M139.031,20.29l3.847,1.901l-4.209,3.53h-3.212L139.031,20.29z"/>
	<path fill="#FFFFFF" d="M152.156,27.622h4.617l4.435,13.713l4.436-13.713h4.616v31.681h-4.3V37.669l-4.706,13.985h-0.091
		l-4.707-13.985v21.634h-4.3V27.622z"/>
	<path fill="#FFFFFF" d="M182.299,27.531h4.797l6.291,31.771h-4.525l-1.268-7.061h-5.974l-1.268,7.061h-4.345L182.299,27.531z
		 M186.916,48.214l-2.309-12.718l-2.308,12.718H186.916z"/>
	<path fill="#FFFFFF" d="M199.135,27.622h4.255l6.924,19.46v-19.46h4.3v31.681h-3.982l-7.196-20.186v20.186h-4.3V27.622z"/>
	<path fill="#FFFFFF" d="M221.268,44.141v-1.358c0-10.455,3.349-15.568,8.146-15.568c4.798,0,8.146,5.114,8.146,15.568v1.358
		c0,10.455-3.349,15.569-8.146,15.569C224.617,59.71,221.268,54.596,221.268,44.141z M233.035,44.141v-1.358
		c0-8.463-1.493-11.496-3.621-11.496c-2.127,0-3.62,3.032-3.62,11.496v1.358c0,8.463,1.493,11.496,3.62,11.496
		C231.542,55.637,233.035,52.604,233.035,44.141z"/>
</g>
</svg>
